
 ######           ######                       
 #     # #  ####  #     # ###### #####  #    # 
 #     # # #    # #     # #      #    # ##  ## 
 ######  # #      ######  #####  #    # # ## # 
 #     # # #  ### #       #      #####  #    # 
 #     # # #    # #       #      #   #  #    # 
 ######  #  ####  #       ###### #    # #    # 


Plot

Marybeth escapes the clutches of the bayou-butcher Victor Crowley and returns
to the swamp with an army of hunters and gunmen, determined to end Crowley's
reign of horror once and for all.


General
Complete name : Hatchet II 2010 DVDRip Xvid BigPerm LKRGH2_LKRG.avi
Format : AVI
Format/Info : Audio Video Interleave
File size : 868 MiB
Duration : 1h 25mn
Overall bit rate : 1 422 Kbps

Video
ID : 0
Format : MPEG-4 Visual
Format profile : Advanced Simple@L5
Format settings, BVOP : Yes
Format settings, QPel : No
Format settings, GMC : No warppoints
Format settings, Matrix : Default (H.263)
Codec ID : XVID
Codec ID/Hint : XviD
Duration : 1h 25mn
Bit rate : 1 225 Kbps
Width : 704 pixels
Height : 396 pixels
Display aspect ratio : 16:9
Frame rate : 23.976 fps
Color space : YUV
Chroma subsampling : 4:2:0
Bit depth : 8 bits
Scan type : Progressive
Compression mode : Lossy
Bits/(Pixel*Frame) : 0.183
Stream size : 747 MiB (86%)
Writing library : XviD 1.2.1 (UTC 2008-12-04)

Audio
ID : 1
Format : AC-3
Format/Info : Audio Coding 3
Mode extension : CM (complete main)
Codec ID : 2000
Duration : 1h 25mn
Bit rate mode : Constant
Bit rate : 192 Kbps
Channel(s) : 2 channels
Channel positions : Front: L R
Sampling rate : 48.0 KHz
Bit depth : 16 bits
Compression mode : Lossy
Video delay : 42ms
Stream size : 117 MiB (13%)
Alignment : Split accross interleaves
Interleave, duration : 500 ms (11.99 video frames)
Interleave, preload duration : 500 ms
Language : English





================================== 
http://thepiratebay.org/user/hiest
==================================





Screenshots:
 
http://leetleech.org/images/75894688634949819376.png
 
http://leetleech.org/images/25378042875912073174.png
 
http://leetleech.org/images/80818156829607433352.png
 
http://leetleech.org/images/70703474362658477380.png
 
http://leetleech.org/images/69277689694223264664.png



 ######           ######                       
 #     # #  ####  #     # ###### #####  #    # 
 #     # # #    # #     # #      #    # ##  ## 
 ######  # #      ######  #####  #    # # ## # 
 #     # # #  ### #       #      #####  #    # 
 #     # # #    # #       #      #   #  #    # 
 ######  #  ####  #       ###### #    # #    # 
